<svg width="351" height="105" viewBox="0 0 351 105" fill="none" xmlns="http://www.w3.org/2000/svg">
<g clip-path="url(#clip0_7_51)">
<path d="M111.564 27.4461C111.564 27.4461 150.39 0 206.87 0C262.281 0 250.373 27.4461 250.373 27.4461L221.097 27.3913C221.097 27.3913 234.76 10.6552 198.624 10.6552C149.137 10.6552 111.629 27.4461 111.629 27.4461H111.564Z" fill="#FF9C00"/>
<path d="M247.144 77.3301C247.144 77.3301 208.319 104.776 151.838 104.776C96.4328 104.776 108.335 77.3301 108.335 77.3301L137.612 77.3849C137.612 77.3849 123.949 94.121 160.085 94.121C209.571 94.121 247.085 77.3301 247.085 77.3301H247.144Z" fill="white"/>
<path d="M23.2221 51.7051C22.0503 51.2809 20.8183 50.9367 19.551 50.6723C18.2789 50.4079 16.9262 50.2434 15.5383 50.1736C14.1655 50.0938 12.8531 50.014 11.5959 49.9192C10.3438 49.8294 9.1319 49.7246 7.99545 49.6099C5.33532 49.3356 5.02857 47.9736 5.02857 46.9709C5.02857 46.4872 5.15932 46.088 5.43086 45.7538C5.72252 45.3897 6.11475 45.0904 6.59246 44.8559C7.10539 44.6065 7.6887 44.417 8.3223 44.2822C8.98104 44.1427 9.64985 44.0379 10.3036 43.968C10.9623 43.8982 11.6009 43.8582 12.1943 43.8434C12.8078 43.8283 13.3056 43.8233 13.6979 43.8233C15.4327 43.8233 17.1123 44.0079 18.6912 44.377C20.2651 44.7411 21.7386 45.2849 23.0661 45.9883L23.3377 46.1329L27.3705 43.3195L26.7621 42.9154C24.8915 41.6684 22.8146 40.7256 20.577 40.1119C18.3493 39.4985 16.0361 39.1892 13.6979 39.1892C12.9335 39.1892 12.0736 39.224 11.1383 39.2889C10.203 39.3537 9.23247 39.4835 8.25693 39.678C7.27635 39.8725 6.3159 40.142 5.4007 40.4811C4.46035 40.8304 3.61052 41.2942 2.88138 41.8629C2.13715 42.4416 1.52869 43.1548 1.07109 43.9829C0.608458 44.826 0.372116 45.8336 0.372116 46.9811C0.372116 50.1486 1.63429 52.2089 4.1184 53.1017C6.44665 53.9597 9.04139 54.4685 11.8272 54.6133C13.2051 54.6931 14.5276 54.7778 15.7545 54.8777C16.9815 54.9723 18.1933 55.0822 19.345 55.1969C22.0051 55.4712 22.3119 56.823 22.3119 57.8207C22.3119 58.3196 22.176 58.7186 21.9045 59.0528C21.6027 59.4171 21.2105 59.7213 20.7279 59.9508C20.215 60.2001 19.6316 60.3948 18.9929 60.5344C18.3342 60.6791 17.6705 60.7888 17.0167 60.8587C16.363 60.9285 15.7344 60.9685 15.1511 60.9734C14.5527 60.9785 14.07 60.9833 13.7029 60.9833C12.0083 60.9833 10.3287 60.7988 8.71453 60.4397C7.11042 60.0805 5.62698 59.5318 4.29944 58.8035L4.02286 58.6388L0 61.4723L0.583315 61.8764C2.27293 63.0436 4.26423 63.9665 6.50698 64.6149C8.73967 65.2634 11.1635 65.5877 13.6979 65.5877C14.4521 65.5877 15.302 65.5577 16.2323 65.498C17.1776 65.4381 18.1432 65.3083 19.1085 65.1187C20.0791 64.9241 21.0345 64.6549 21.9398 64.3156C22.8649 63.9665 23.7098 63.5025 24.4389 62.9388C25.1831 62.3603 25.7966 61.6469 26.2592 60.8188C26.7319 59.9757 26.9783 58.9631 26.9884 57.8008C26.9884 54.6781 25.7211 52.6278 23.2221 51.7051Z" fill="white"/>
<path d="M69.0824 57.9102V65.5922H66.2412V57.9102L57.7028 45.8331H61.1875L67.6794 55.0168L74.1261 45.8331H77.626L69.0824 57.9102Z" fill="white"/>
<path d="M125.403 45.828H128.259V65.5921H125.403L111.182 50.0283V65.5921H108.341V45.828H111.182L125.403 61.3918V45.828Z" fill="white"/>
<path d="M169.649 45.828C170.615 45.828 171.55 45.9478 172.456 46.1821C173.356 46.4216 174.2 46.7558 174.99 47.1899C175.779 47.6239 176.504 48.1427 177.168 48.7413C177.831 49.3399 178.394 50.0033 178.862 50.7167L176.357 52.0784C176.01 51.5746 175.603 51.1106 175.126 50.6818C174.653 50.2578 174.125 49.8935 173.547 49.5893C172.968 49.2849 172.345 49.0555 171.691 48.891C171.032 48.7312 170.354 48.6465 169.649 48.6465C168.568 48.6465 167.558 48.8311 166.607 49.2051C165.662 49.5793 164.832 50.0831 164.118 50.7216C163.404 51.3602 162.841 52.1085 162.428 52.9664C162.016 53.8243 161.81 54.7373 161.81 55.71C161.81 56.6678 162.016 57.5806 162.428 58.4387C162.841 59.2966 163.404 60.0449 164.118 60.6835C164.832 61.3219 165.662 61.8257 166.607 62.2C167.553 62.574 168.568 62.7586 169.649 62.7586C170.363 62.7586 171.048 62.6737 171.711 62.5092C172.375 62.3446 172.994 62.1051 173.567 61.7959C174.14 61.4866 174.669 61.1223 175.14 60.6984C175.613 60.2744 176.026 59.8055 176.373 59.2867L178.877 60.6336C178.42 61.3719 177.861 62.0453 177.213 62.6488C176.558 63.2575 175.84 63.7762 175.046 64.2103C174.251 64.6442 173.396 64.9833 172.486 65.2179C171.575 65.4573 170.63 65.572 169.649 65.572C166.698 65.572 164.173 64.6093 162.087 62.6788C160.01 60.7583 158.969 58.4336 158.969 55.7051C158.969 52.9963 160.01 50.6667 162.087 48.7163C164.158 46.8007 166.678 45.828 169.649 45.828Z" fill="white"/>
<path d="M224.797 60.9678V39.1836H220.142V65.5921H246.758V60.9678H224.797Z" fill="white"/>
<path d="M282.717 61.3469L280.625 65.5921H277.447L287.252 45.828H290.415L300.206 65.5921H297.044L294.952 61.3469H282.717ZM288.826 49.0106L284.12 58.5284H293.529L288.826 49.0106Z" fill="white"/>
<path d="M331.077 45.828H345.298C346.072 45.828 346.802 45.9777 347.49 46.277C348.18 46.5763 348.782 46.9853 349.306 47.5041C349.828 48.0229 350.24 48.6266 350.542 49.305C350.845 49.9883 350.995 50.7116 350.995 51.4798C350.995 53.1559 350.347 54.5726 349.055 55.725C350.347 56.8674 350.995 58.2691 350.995 59.9401C350.995 60.7183 350.845 61.4466 350.542 62.1301C350.24 62.8134 349.833 63.4121 349.32 63.9258C348.808 64.4397 348.199 64.8487 347.5 65.148C346.802 65.4473 346.067 65.597 345.293 65.597H331.072V45.828H331.077ZM333.918 48.6615V54.2983H345.298C345.684 54.2983 346.051 54.2235 346.399 54.0688C346.746 53.9192 347.048 53.7147 347.3 53.4602C347.556 53.2058 347.757 52.9116 347.913 52.5674C348.063 52.2232 348.143 51.8589 348.143 51.4749C348.143 51.0907 348.068 50.7315 347.913 50.3924C347.762 50.0531 347.556 49.7538 347.294 49.4995C347.032 49.24 346.736 49.0355 346.393 48.8859C346.051 48.7362 345.69 48.6564 345.302 48.6564H333.918V48.6615ZM345.298 57.1216H333.918V62.7736H345.298C345.684 62.7736 346.051 62.6987 346.399 62.5442C346.746 62.3945 347.048 62.1898 347.3 61.9305C347.556 61.6712 347.757 61.3719 347.913 61.0277C348.063 60.6835 348.143 60.3192 348.143 59.9352C348.143 59.5511 348.068 59.1918 347.913 58.8527C347.762 58.5134 347.556 58.2141 347.294 57.9599C347.032 57.7004 346.736 57.4959 346.393 57.3462C346.051 57.1966 345.684 57.1216 345.298 57.1216Z" fill="white"/>
</g>
<defs>
<clipPath id="clip0_7_51">
<rect width="351" height="104.776" fill="white"/>
</clipPath>
</defs>
</svg>
